<svg width="48.000000pt" height="48.000000pt" viewBox="0 0 48.000000 48.000000" xmlns="http://www.w3.org/2000/svg">
  <g transform="translate(0.000000,48.000000) scale(0.100000,-0.100000)" fill="#fefefe" stroke="none">
    <path d="M0 324 l0 -156 13 4 c6 3 13 15 15 27 l4 22 24 11 c13 6 24 15 24 21
0 5 -11 18 -25 29 l-25 19 0 25 0 25 18 6 c9 4 20 11 23 16 l6 9 21 -11 c30
-16 42 -14 42 7 0 29 30 82 46 82 8 0 14 -3 14 -8 0 -13 59 -34 80 -27 l20 6
22 -20 22 -21 31 6 31 6 11 -14 c5 -7 13 -21 16 -31 l7 -19 -30 -30 c-17 -16
-30 -33 -30 -37 0 -4 16 -13 35 -20 l36 -12 13 -32 14 -32 1 153 1 152 -240 0
-240 0 0 -156z" />
    <path d="M453 163 c-13 -2 -23 -8 -23 -13 l0 -9 -31 6 -32 6 7 -26 6 -27 -10
0 c-5 0 -10 -11 -10 -25 l0 -25 -12 -1 c-25 -2 -43 3 -59 17 -8 8 -21 14 -27
14 -6 0 -22 -11 -36 -25 -14 -14 -34 -25 -45 -25 -25 0 -61 45 -61 76 l0 24
-45 0 -45 0 0 15 c0 8 -7 15 -15 15 l-15 0 0 -80 0 -80 240 0 240 0 0 85 c0
47 -1 84 -2 84 -2 -1 -13 -4 -25 -6z" />
  </g>
  <g transform="translate(0.000000,48.000000) scale(0.100000,-0.100000)" fill="#fbdc12" stroke="none">
    <path d="M253 426 c-13 -6 -23 -14 -23 -18 0 -5 -7 -8 -15 -8 -8 0 -15 -4 -15
-10 0 -21 -20 -9 -26 16 l-6 25 -17 -3 -16 -3 -3 -25 c-1 -14 -7 -48 -13 -77
l-10 -51 -35 -17 c-18 -9 -34 -21 -34 -26 0 -6 -7 -17 -15 -25 -21 -21 -19
-47 5 -69 l20 -18 35 6 35 6 0 -35 0 -35 15 -15 15 -15 42 3 42 3 17 30 c10
17 18 45 18 63 l1 32 -20 0 c-11 0 -23 -7 -27 -16 l-6 -15 -18 20 c-11 11 -19
27 -19 36 0 8 -6 15 -14 15 -19 0 -27 36 -15 69 6 16 9 32 8 37 -4 25 5 33 51
44 l50 12 0 15 0 15 16 -6 c9 -3 17 -6 20 -6 2 0 1 -7 -3 -15 l-5 -16 17 -19
c10 -11 24 -20 32 -20 7 0 13 -7 13 -15 0 -19 9 -19 53 0 l36 15 7 22 7 22
-24 18 -23 19 -21 -5 -22 -6 -21 21 c-12 11 -22 24 -22 29 0 13 -39 11 -67 -4z
m-83 -270 c0 -2 -9 -6 -20 -9 l-20 -5 6 9 c5 9 34 13 34 5z" />
    <path d="M47 368 c-9 -7 -19 -25 -23 -40 l-6 -28 16 0 c9 0 16 6 16 13 0 7 9
19 20 27 23 16 27 40 7 40 -7 0 -21 -6 -30 -12z" />
    <path d="M400 250 c0 -5 -7 -10 -15 -10 l-15 0 0 -25 0 -25 -20 0 -20 0 0 -20
0 -20 33 0 c17 0 42 -3 55 -6 l22 -6 1 18 1 19 5 -12 c7 -18 33 -16 33 2 0 8
-6 15 -14 15 l-13 0 -7 40 -6 40 -20 0 c-11 0 -20 -4 -20 -10z" />
    <path d="M318 83 c-20 -5 -24 -28 -7 -38 5 -4 21 -4 35 -1 l24 6 0 20 0 20
-17 -1 c-10 -1 -26 -3 -35 -6z" />
  </g>
  <g transform="translate(0.000000,48.000000) scale(0.100000,-0.100000)" fill="#fbe114" stroke="none">
    <path d="M168 463 c-21 -5 -22 -18 -7 -62 l11 -31 18 0 c10 0 21 6 24 13 3 6
4 0 1 -15 l-5 -28 18 0 19 0 -1 52 -1 53 -18 3 c-9 2 -17 8 -17 13 0 9 -12 10
-42 2z" />
    <path d="M320 400 c0 -5 5 -10 10 -10 6 0 10 5 10 10 0 6 -4 10 -10 10 -5 0
-10 -4 -10 -10z" />
    <path d="M398 360 c2 -16 9 -30 14 -30 l9 0 -6 21 -7 22 11 -7 11 -7 0 15 0
16 -18 0 -19 0 5 -30z" />
    <path d="M53 373 c-13 -2 -23 -7 -23 -11 0 -4 -3 -18 -7 -31 l-6 -24 10 6 11
7 -5 -19 -5 -19 26 -17 25 -17 20 7 20 6 7 34 c3 19 10 33 14 30 12 -8 -2 39
-14 47 -12 8 -36 8 -73 1z m7 -23 c0 -5 -5 -10 -11 -10 -5 0 -7 5 -4 10 3 6 8
10 11 10 2 0 4 -4 4 -10z" />
    <path d="M360 340 c0 -5 7 -10 15 -10 8 0 15 5 15 10 0 6 -7 10 -15 10 -8 0
-15 -4 -15 -10z" />
    <path d="M373 311 c-4 -3 -9 -12 -10 -18 l-3 -13 24 0 c13 0 29 6 35 14 l11
14 -24 4 c-14 3 -28 2 -33 -1z" />
    <path d="M75 210 c3 -6 -1 -13 -9 -16 -9 -3 -16 -10 -16 -15 l0 -9 28 6 c15 4
29 8 31 10 6 5 -20 34 -31 34 -5 0 -6 -5 -3 -10z" />
    <path d="M438 214 c-4 -3 -4 -12 -2 -19 3 -7 0 -16 -5 -20 -6 -3 -9 -10 -6
-14 2 -5 -7 -6 -20 -3 -14 2 -22 8 -19 13 3 5 2 9 -1 9 -9 0 -38 -30 -34 -34
2 -2 23 -7 47 -11 l42 -7 0 10 c0 5 9 12 21 15 l20 6 -3 28 -3 28 -15 3 c-9 1
-19 0 -22 -4z" />
    <path d="M123 157 c-4 -8 -17 -17 -28 -22 l-20 -8 17 -4 c20 -5 78 23 78 37 0
15 -38 12 -47 -3z" />
    <path d="M250 129 l-15 -9 15 -10 15 -10 -23 -6 -24 -7 14 -8 c7 -5 16 -9 20
-9 7 0 22 59 16 65 -2 2 -10 0 -18 -6z" />
    <path d="M210 61 c0 -5 7 -11 15 -15 8 -3 15 -1 15 3 0 5 -7 11 -15 15 -8 3
-15 1 -15 -3z" />
  </g>
  <g transform="translate(0.000000,48.000000) scale(0.100000,-0.100000)" fill="#f9d410" stroke="none">
    <path d="M251 382 l-12 -27 -40 0 -40 0 -9 -15 c-6 -8 -9 -22 -9 -30 3 -35 -2
-51 -21 -70 l-20 -20 20 0 20 0 0 -20 0 -19 15 5 15 6 0 -12 c0 -14 -25 -40
-39 -40 -12 0 -24 -37 -16 -50 4 -6 11 -8 16 -4 5 3 7 10 3 15 -7 12 15 41 26
34 5 -3 12 -1 15 5 l6 10 18 -22 18 -22 12 23 13 23 14 -6 14 -5 0 19 0 20
-20 0 -20 0 0 -16 c0 -19 -21 -14 -30 7 -4 8 -12 24 -19 37 l-12 23 7 36 7 35
-14 9 -14 9 31 0 31 0 23 20 c26 23 40 25 40 8 0 -7 14 -22 30 -33 16 -11 30
-23 30 -27 0 -5 8 -8 17 -8 9 0 13 3 10 7 -4 3 1 12 11 19 l17 13 -31 1 -32 0
-13 16 c-8 9 -12 29 -10 43 1 14 0 23 -4 19 -4 -4 -16 -3 -25 2 l-18 10 -11
-28z" />
    <path d="M340 390 c0 -15 27 -23 48 -15 l17 7 -20 8 c-28 12 -45 12 -45 0z" />
    <path d="M420 371 c0 -6 5 -13 10 -16 l10 -6 0 15 c0 9 -4 16 -10 16 -5 0 -10
-4 -10 -9z" />
    <path d="M70 250 c0 -5 4 -10 9 -10 6 0 13 5 16 10 l6 10 -15 0 c-9 0 -16 -4
-16 -10z" />
    <path d="M385 241 c-11 -2 -27 -12 -36 -22 -9 -11 -21 -19 -28 -19 -14 0 -14
-27 0 -36 6 -3 15 -1 19 6 l8 12 19 -6 20 -6 -2 30 -2 30 19 -5 c10 -3 27 -8
38 -11 l20 -5 0 20 0 20 -28 -2 c-15 -1 -37 -4 -47 -6z" />
    <path d="M30 216 c0 -17 14 -19 45 -6 l20 9 -17 0 c-9 1 -23 4 -32 7 l-16 6 0
-16z" />
    <path d="M34 148 l-7 -11 11 7 c12 7 16 16 8 16 -3 0 -8 -5 -12 -12z" />
    <path d="M320 80 c0 -5 4 -10 9 -10 6 0 13 5 16 10 l6 10 -15 0 c-9 0 -16 -4
-16 -10z" />
    <path d="M130 50 c0 -5 5 -10 10 -10 6 0 10 5 10 10 0 6 -4 10 -10 10 -5 0
-10 -4 -10 -10z" />
  </g>
  <g transform="translate(0.000000,48.000000) scale(0.100000,-0.100000)" fill="#eec810" stroke="none">
    <path d="M249 423 c-1 -5 0 -20 1 -34 l1 -27 -23 -16 c-12 -9 -35 -16 -50 -16
l-28 0 0 -15 c0 -8 5 -15 10 -15 18 0 11 -29 -12 -50 l-22 -20 15 0 c8 0 20
-10 27 -21 l14 -21 -11 -11 c-16 -16 -13 -30 4 -24 8 4 17 2 20 -3 4 -6 15
-10 26 -10 l19 0 0 16 0 16 15 -6 15 -5 0 14 0 15 -25 0 -24 0 -21 23 -22 22
6 35 c3 19 10 36 16 38 6 2 16 10 23 17 l12 13 38 -15 c40 -16 63 -10 37 10
-9 7 -14 20 -12 29 l3 16 -20 -5 -20 -5 9 31 9 31 -15 0 c-8 0 -14 -3 -15 -7z" />
    <path d="M357 404 c-12 -12 4 -24 34 -24 31 0 39 14 13 24 -20 8 -39 8 -47 0z" />
    <path d="M313 295 c-3 -9 -3 -18 0 -22 10 -10 37 6 37 22 0 20 -29 20 -37 0z" />
    <path d="M360 253 c-8 -4 -20 -12 -27 -19 -7 -7 -17 -14 -23 -16 -5 -1 -12
-18 -16 -35 l-6 -33 17 -6 17 -7 8 14 9 13 -11 13 -10 13 14 0 c7 0 20 9 28
20 8 11 20 20 27 20 7 0 13 7 13 15 0 15 -14 18 -40 8z" />
    <path d="M442 231 l-14 -8 17 -7 c23 -9 25 -8 25 9 0 17 -9 19 -28 6z" />
    <path d="M20 205 l0 -14 15 5 c8 4 12 10 9 15 -8 14 -24 10 -24 -6z" />
    <path d="M350 121 c0 -5 -12 -11 -27 -14 -16 -4 -35 -11 -43 -16 l-15 -10 11
-18 c14 -23 34 -28 34 -9 l0 16 27 6 c48 12 73 54 33 54 -11 0 -20 -4 -20 -9z" />
    <path d="M120 62 c0 -12 19 -26 26 -19 2 2 -2 10 -11 17 l-15 12 0 -10z" />
  </g>
  <g transform="translate(0.000000,48.000000) scale(0.100000,-0.100000)" fill="#f4d314" stroke="none">
    <path d="M285 430 c4 -6 11 -8 16 -5 14 9 11 15 -7 15 l-15 0 6 -10z" />
    <path d="M240 420 c0 -5 4 -10 9 -10 5 0 12 -8 14 -17 3 -10 4 -6 4 10 l-1 27
-13 0 c-7 0 -13 -4 -13 -10z" />
    <path d="M334 392 c10 -10 54 -13 59 -5 3 5 -11 9 -30 10 -19 1 -32 -1 -29 -5z" />
    <path d="M259 365 c-1 -5 -1 -13 0 -17 0 -4 -5 -5 -13 -2 -8 3 -17 1 -21 -5
l-6 -11 33 -2 c18 0 38 -1 45 -1 l11 1 -5 -14 -5 -14 13 -1 c8 -1 18 -1 23 0
5 1 4 -5 -4 -13 l-12 -16 21 0 c11 0 21 4 21 10 0 14 -53 61 -65 56 -5 -1 -15
6 -22 18 -7 12 -13 17 -14 11z" />
    <path d="M437 343 c-4 -3 -7 -11 -7 -17 l0 -10 12 12 c6 6 9 14 7 17 -3 3 -9
2 -12 -2z" />
    <path d="M150 312 l0 -14 15 12 15 12 0 -11 c0 -6 5 -11 11 -11 21 0 2 25 -19
26 l-22 1 0 -15z" />
    <path d="M83 253 c4 -3 10 -3 14 0 3 4 0 7 -7 7 -7 0 -10 -3 -7 -7z" />
    <path d="M375 252 c-5 -4 -11 -16 -12 -27 -1 -11 0 -14 3 -7 3 6 14 12 25 12
10 0 19 5 19 11 l0 10 21 -6 22 -7 -7 11 c-8 12 -56 15 -71 3z" />
    <path d="M27 233 c-12 -12 -7 -30 8 -30 8 0 13 3 10 5 -3 3 0 11 6 19 l11 13
-14 0 c-8 0 -18 -3 -21 -7z" />
    <path d="M325 200 c3 -5 8 -10 11 -10 3 0 2 5 -1 10 -3 6 -8 10 -11 10 -3 0
-2 -4 1 -10z" />
    <path d="M465 191 c-3 -5 -1 -12 5 -16 l10 -6 0 15 c0 18 -6 21 -15 7z" />
    <path d="M0 165 c0 -8 5 -15 10 -15 6 0 10 -7 10 -15 l0 -15 21 0 21 0 -24 29
c-26 33 -38 38 -38 16z" />
    <path d="M188 166 c5 -11 19 -20 30 -21 12 -1 19 2 16 7 -3 5 -11 7 -17 5 -7
-2 -18 3 -25 12 l-13 16 9 -19z" />
    <path d="M122 138 c-15 -15 -16 -68 -1 -68 l11 0 -5 20 -5 21 21 19 21 20 -15
0 c-8 0 -20 -5 -27 -12z" />
    <path d="M354 104 l5 -12 -25 -6 c-14 -4 -30 -3 -36 0 l-11 7 6 -17 c4 -10 7
-22 7 -27 l0 -10 38 3 37 3 -2 23 c-2 12 2 22 7 22 6 0 10 6 10 13 0 7 -9 13
-20 13 l-20 0 4 -12z m6 -33 c0 -12 -29 -23 -42 -15 l-10 7 13 8 c18 11 39 11
39 0z" />
    <path d="M170 30 c0 -5 9 -10 20 -10 11 0 20 5 20 10 0 6 -9 10 -20 10 -11 0
-20 -4 -20 -10z" />
  </g>
  <g transform="translate(0.000000,48.000000) scale(0.100000,-0.100000)" fill="#e7a50e" stroke="none">
    <path d="M212 330 l-31 -19 -9 -33 -9 -33 9 -10 9 -10 8 14 9 13 6 -11 c4 -6
21 -11 38 -11 l30 0 27 23 c30 27 37 47 17 47 -8 0 -21 8 -28 18 -7 10 -20 21
-29 24 l-16 6 -31 -18z" />
    <path d="M310 245 c0 -8 7 -15 15 -15 8 0 15 7 15 15 0 8 -7 15 -15 15 -8 0
-15 -7 -15 -15z" />
    <path d="M283 205 c-17 -19 -16 -35 0 -35 8 0 19 11 25 25 l12 25 -13 0 c-6
-1 -18 -7 -24 -15z" />
    <path d="M192 198 c-7 -7 -12 -16 -12 -22 l0 -10 11 11 c6 6 18 9 25 6 l14 -5
0 16 c0 19 -21 21 -38 4z" />
  </g>
  <g transform="translate(0.000000,48.000000) scale(0.100000,-0.100000)" fill="#e5c215" stroke="none">
    <path d="M380 405 c0 -2 9 -9 20 -15 l20 -11 0 16 0 15 -20 0 c-11 0 -20 -2
-20 -5z" />
    <path d="M275 349 c-4 -6 -14 -8 -22 -5 l-14 6 6 -10 c3 -6 12 -10 18 -10 7 0
18 -9 25 -20 7 -11 19 -20 27 -20 23 0 18 15 -10 30 l-26 14 5 13 c6 16 0 17
-9 2z" />
    <path d="M195 320 c-3 -5 -1 -10 4 -10 6 0 11 5 11 10 0 6 -2 10 -4 10 -3 0
-8 -4 -11 -10z" />
    <path d="M353 258 c-23 -11 -32 -38 -13 -38 6 0 10 4 10 10 0 5 16 12 35 16
19 3 35 10 35 15 0 12 -40 10 -67 -3z" />
    <path d="M10 211 c0 -6 5 -13 10 -16 l10 -6 0 15 c0 9 -4 16 -10 16 -5 0 -10
-4 -10 -9z" />
    <path d="M215 169 c-4 -6 -5 -13 -2 -16 7 -7 27 6 27 18 0 12 -17 12 -25 -2z" />
    <path d="M278 162 c-10 -2 -18 -10 -18 -18 l0 -14 23 -1 22 0 -22 -16 c-13 -8
-23 -22 -23 -30 l0 -14 18 3 c9 2 23 9 31 16 8 8 24 12 37 9 l22 -4 -5 14 c-3
7 0 13 6 13 6 0 11 5 11 10 0 6 -9 10 -20 10 -11 0 -19 5 -17 11 1 6 -4 14
-10 16 -7 3 -13 -1 -13 -7 l0 -12 -12 9 c-7 5 -21 8 -30 5z" />
    <path d="M136 145 c-11 -8 -18 -17 -15 -19 2 -3 15 4 29 14 14 11 21 20 15 19
-5 0 -19 -6 -29 -14z" />
  </g>
  <g transform="translate(0.000000,48.000000) scale(0.100000,-0.100000)" fill="#d99e0a" stroke="none">
    <path d="M224 318 c2 -10 -1 -18 -7 -18 -6 0 -8 -2 -5 -5 3 -3 16 -1 29 4 l24
10 -20 1 -20 1 23 9 c12 5 22 11 22 14 0 2 -11 3 -26 2 l-25 -1 5 -17z" />
    <path d="M190 309 c0 -5 5 -7 10 -4 6 3 10 8 10 11 0 2 -4 4 -10 4 -5 0 -10
-5 -10 -11z" />
    <path d="M290 295 c0 -9 5 -15 11 -13 6 2 11 8 11 13 0 5 -5 11 -11 13 -6 2
-11 -4 -11 -13z" />
    <path d="M173 265 c-6 -14 -7 -23 -2 -19 8 5 13 -18 12 -53 l-1 -12 19 10 19
10 -2 -13 c-4 -17 24 -17 30 0 l4 13 -21 6 c-12 3 -21 12 -21 19 0 8 -6 14
-12 14 l-13 0 12 8 13 8 -13 17 -12 17 -12 -25z" />
    <path d="M225 270 c-8 -12 20 -24 35 -15 6 3 8 11 5 16 -8 12 -32 12 -40 -1z" />
    <path d="M307 273 c-4 -3 -7 -19 -7 -34 l0 -27 16 -6 16 -6 -4 25 -5 24 8 -5
c5 -3 9 4 9 15 l0 21 -13 0 c-8 0 -17 -3 -20 -7z" />
    <path d="M220 230 c0 -5 7 -10 15 -10 8 0 15 5 15 10 0 6 -7 10 -15 10 -8 0
-15 -4 -15 -10z" />
    <path d="M272 202 l-13 -9 3 -31 2 -32 14 0 14 0 -4 29 -4 29 14 -6 15 -5 -5
13 c-5 17 -20 22 -36 12z" />
    <path d="M322 158 c5 -15 28 -23 28 -10 0 5 -7 13 -16 16 l-16 6 4 -12z" />
  </g>
  <g transform="translate(0.000000,48.000000) scale(0.100000,-0.100000)" fill="#eed626" stroke="none">
    <path d="M157 463 c-4 -3 -7 -10 -7 -14 0 -9 39 1 46 12 6 10 -29 12 -39 2z" />
    <path d="M216 452 c-2 -4 4 -13 15 -20 21 -13 22 -12 13 12 -7 17 -20 21 -28
8z" />
    <path d="M277 443 c-12 -12 -7 -22 8 -17 8 4 15 10 15 15 0 11 -14 12 -23 2z" />
    <path d="M325 400 c3 -5 10 -10 16 -10 5 0 9 5 9 10 0 6 -7 10 -16 10 l-15 0
6 -10z" />
    <path d="M57 376 c-3 -8 -2 -18 3 -21 6 -4 10 -1 10 6 l0 12 35 -6 c19 -3 35
-2 35 2 0 4 -6 8 -12 9 -7 1 -25 4 -39 7 l-26 7 -6 -16z" />
    <path d="M426 365 c9 -14 18 -24 20 -22 2 1 1 13 -3 25 -3 12 -12 22 -19 22
l-14 0 16 -25z" />
    <path d="M16 341 c-8 -12 23 -71 40 -78 l15 -5 -18 -14 c-24 -18 -2 -18 22 0
l20 14 -27 12 -26 12 5 14 c3 8 0 14 -7 14 l-11 0 6 20 6 20 -10 0 c-5 0 -12
-4 -15 -9z" />
    <path d="M395 290 c-3 -5 -2 -10 4 -10 5 0 13 5 16 10 3 6 2 10 -4 10 -5 0
-13 -4 -16 -10z" />
    <path d="M345 280 l-6 -10 20 0 c12 0 21 5 21 10 0 6 -6 10 -14 10 -8 0 -18
-4 -21 -10z" />
    <path d="M405 260 c3 -5 11 -10 16 -10 6 0 7 5 4 10 -3 6 -11 10 -16 10 -6 0
-7 -4 -4 -10z" />
    <path d="M462 200 c14 -22 24 -19 15 5 -4 8 -11 15 -17 15 l-10 0 12 -20z" />
    <path d="M5 180 c-4 -6 -1 -18 7 -27 7 -9 12 -19 10 -22 -2 -3 1 -7 6 -9 l10
-3 -5 20 c-3 12 -10 21 -15 21 l-10 0 12 15 12 15 -10 0 c-6 0 -14 -5 -17 -10z" />
    <path d="M340 150 c0 -5 7 -10 16 -10 l15 0 -6 10 c-3 6 -10 10 -16 10 -5 0
-9 -4 -9 -10z" />
    <path d="M430 149 c0 -5 5 -7 10 -4 6 3 10 8 10 11 0 2 -4 4 -10 4 -5 0 -10
-5 -10 -11z" />
    <path d="M390 140 c20 -13 33 -13 25 0 -3 6 -14 10 -23 10 l-17 0 15 -10z" />
    <path d="M240 70 c-6 -12 -9 -24 -7 -27 3 -2 11 5 17 17 6 12 9 24 7 27 -3 2
-11 -5 -17 -17z" />
    <path d="M330 50 l-25 -7 17 -7 c9 -4 24 -3 34 2 22 12 5 21 -26 12z" />
    <path d="M150 30 c0 -5 7 -10 15 -10 8 0 15 5 15 10 0 6 -7 10 -15 10 -8 0
-15 -4 -15 -10z" />
  </g>
  <g transform="translate(0.000000,48.000000) scale(0.100000,-0.100000)" fill="#e4b60b" stroke="none">
    <path d="M253 333 c4 -3 10 -3 14 0 3 4 0 7 -7 7 -7 0 -10 -3 -7 -7z" />
    <path d="M175 280 c3 -5 8 -10 11 -10 2 0 4 5 4 10 0 6 -5 10 -11 10 -5 0 -7
-4 -4 -10z" />
    <path d="M326 244 c-3 -9 -6 -23 -6 -32 l1 -17 14 25 c8 14 14 28 15 33 0 13
-18 7 -24 -9z" />
    <path d="M170 229 c13 -23 29 -25 26 -2 -2 9 -10 17 -19 19 l-17 2 10 -19z" />
    <path d="M286 201 c-4 -6 -5 -11 -2 -11 2 0 1 -13 -4 -30 l-9 -30 15 0 c8 0
13 3 11 8 -3 4 -1 16 3 27 l8 20 13 -28 c7 -15 17 -26 21 -25 12 4 9 24 -3 21
-5 -2 -9 0 -9 5 0 4 -9 18 -19 31 l-18 24 -7 -12z" />
    <path d="M236 188 l7 -11 -19 7 -18 7 8 -8 c4 -4 19 -8 32 -8 l24 -1 0 13 c0
7 -9 13 -21 13 l-20 0 7 -12z" />
    <path d="M170 175 l-12 -15 10 0 c12 0 26 19 19 26 -2 2 -10 -2 -17 -11z" />
  </g>
  <g transform="translate(0.000000,48.000000) scale(0.100000,-0.100000)" fill="#dcb91b" stroke="none">
    <path d="M410 390 c0 -5 5 -10 10 -10 6 0 10 5 10 10 0 6 -4 10 -10 10 -5 0
-10 -4 -10 -10z" />
    <path d="M266 326 c3 -8 15 -16 26 -19 l20 -6 -7 -10 -6 -11 15 6 15 6 -28 24
c-33 27 -43 30 -35 10z" />
    <path d="M341 261 l-13 -8 11 -7 c10 -7 51 9 51 19 0 8 -34 5 -49 -4z" />
    <path d="M149 153 l-14 -16 23 12 c23 12 28 21 13 21 -5 0 -15 -7 -22 -17z" />
    <path d="M335 139 c-10 -15 3 -25 16 -12 l11 11 -10 6 c-6 3 -14 1 -17 -5z" />
    <path d="M110 130 c0 -5 5 -10 10 -10 6 0 10 5 10 10 0 6 -4 10 -10 10 -5 0
-10 -4 -10 -10z" />
    <path d="M258 115 c-3 -13 -3 -27 0 -29 8 -8 52 26 52 40 l0 14 -24 0 -24 0
-4 -25z" />
  </g>
  <g transform="translate(0.000000,48.000000) scale(0.100000,-0.100000)" fill="#d69010" stroke="none">
    <path d="M270 325 c0 -3 7 -16 15 -29 l15 -23 -17 -15 c-10 -8 -25 -17 -33
-20 -17 -6 -53 19 -63 42 l-5 15 -1 -32 c-1 -18 4 -33 9 -33 6 0 9 -6 8 -12
l-3 -13 18 3 c9 2 17 -2 17 -8 0 -5 6 -10 14 -10 8 0 17 -6 20 -12 3 -7 3 -3
0 10 l-6 24 23 -4 24 -3 5 30 6 30 12 -2 c21 -5 13 14 -9 20 -12 3 -19 10 -16
14 3 5 -3 14 -14 21 -10 7 -19 10 -19 7z" />
  </g>
  <g transform="translate(0.000000,48.000000) scale(0.100000,-0.100000)" fill="#efecd4" stroke="none">
    <path d="M147 445 c-4 -11 -10 -27 -13 -35 l-6 -15 17 16 c9 9 15 25 13 35
l-4 19 -7 -20z" />
    <path d="M232 440 c13 -21 48 -28 48 -10 l0 11 20 -11 20 -11 0 10 c0 16 -32
22 -47 9 l-15 -12 -13 17 c-17 24 -28 21 -13 -3z" />
    <path d="M420 385 c7 -9 15 -13 17 -11 7 7 -7 26 -19 26 l-10 0 12 -15z" />
    <path d="M41 369 c-13 -5 -22 -11 -20 -14 8 -7 49 7 49 16 0 5 -1 9 -2 8 -2 0
-14 -5 -27 -10z" />
    <path d="M20 301 c0 -5 11 -18 24 -28 l24 -19 -30 -17 c-16 -9 -28 -22 -27
-29 1 -7 -2 -22 -6 -32 l-9 -20 12 -4 c7 -2 10 -8 7 -12 -3 -5 -1 -11 4 -14
11 -7 9 13 -3 33 l-9 13 12 8 c7 4 11 13 9 20 -2 7 11 23 29 35 l32 22 -25 11
c-13 7 -24 18 -24 27 0 8 -4 15 -10 15 -5 0 -10 -4 -10 -9z" />
    <path d="M370 276 l0 -14 29 -4 c17 -2 28 -1 25 4 -3 4 -12 8 -20 8 -8 0 -12
5 -9 10 l6 10 -15 0 c-9 0 -16 -6 -16 -14z" />
    <path d="M453 230 c1 -10 7 -22 13 -24 l12 -5 -5 20 c-7 27 -22 34 -20 9z" />
    <path d="M466 165 c-3 -8 -1 -15 4 -15 6 0 10 7 10 15 0 8 -2 15 -4 15 -2 0
-6 -7 -10 -15z" />
    <path d="M106 131 c-4 -5 -2 -12 3 -15 5 -4 12 -2 15 3 4 5 2 12 -3 15 -5 4
-12 2 -15 -3z" />
    <path d="M364 60 l0 -20 10 10 10 10 -10 10 -10 10 0 -20z" />
    <path d="M236 53 l-7 -18 12 12 c7 7 10 15 7 18 -3 3 -9 -2 -12 -12z" />
    <path d="M140 35 c14 -17 40 -20 40 -4 0 5 -4 8 -9 4 -5 -3 -12 -1 -16 5 -3 5
-11 10 -17 10 l-10 0 12 -15z" />
    <path d="M316 38 c3 -4 12 -8 20 -8 8 0 14 4 14 8 0 4 -9 8 -19 8 -11 0 -17
-4 -15 -8z" />
  </g>
  <g transform="translate(0.000000,48.000000) scale(0.100000,-0.100000)" fill="#f7f5ec" stroke="none">
    <path d="M166 467 l-16 -12 30 0 c32 0 40 9 16 18 -8 3 -21 0 -30 -6z" />
    <path d="M290 445 c0 -9 52 -55 61 -55 15 0 10 7 -26 34 -19 15 -35 24 -35 21z" />
    <path d="M140 419 c0 -5 5 -7 10 -4 6 3 10 8 10 11 0 2 -4 4 -10 4 -5 0 -10
-5 -10 -11z" />
    <path d="M416 391 c10 -10 21 -17 23 -15 6 6 -20 34 -32 34 -6 0 -2 -8 9 -19z" />
    <path d="M60 383 c0 -5 11 -8 24 -8 13 0 22 3 19 8 -2 4 -13 7 -24 7 -10 0
-19 -3 -19 -7z" />
    <path d="M16 344 c-6 -16 12 -60 21 -50 3 3 0 12 -6 20 l-12 14 11 7 c5 3 10
10 10 16 0 15 -17 10 -24 -7z" />
    <path d="M400 290 l-15 -10 12 0 c6 0 15 5 18 10 8 12 4 12 -15 0z" />
    <path d="M445 240 c3 -5 8 -10 11 -10 2 0 4 5 4 10 0 6 -5 10 -11 10 -5 0 -7
-4 -4 -10z" />
    <path d="M30 229 c0 -5 5 -7 10 -4 6 3 10 8 10 11 0 2 -4 4 -10 4 -5 0 -10 -5
-10 -11z" />
    <path d="M370 131 c0 -5 5 -13 10 -16 6 -3 10 -2 10 4 0 5 -4 13 -10 16 -5 3
-10 2 -10 -4z" />
    <path d="M403 133 c4 -3 10 -3 14 0 3 4 0 7 -7 7 -7 0 -10 -3 -7 -7z" />
    <path d="M110 81 c0 -5 5 -13 10 -16 6 -3 10 -2 10 4 0 5 -4 13 -10 16 -5 3
-10 2 -10 -4z" />
    <path d="M247 78 l-5 -14 19 0 c11 0 18 5 16 10 -5 16 -24 18 -30 4z" />
    <path d="M340 40 c0 -5 7 -7 15 -4 8 4 15 8 15 10 0 2 -7 4 -15 4 -8 0 -15 -4
-15 -10z" />
    <path d="M150 30 c0 -7 3 -10 7 -7 3 4 3 10 0 14 -4 3 -7 0 -7 -7z" />
    <path d="M170 28 c0 -11 38 -10 44 1 3 5 -5 8 -19 7 -14 0 -25 -4 -25 -8z" />
  </g>
  <g transform="translate(0.000000,48.000000) scale(0.100000,-0.100000)" fill="#c9840d" stroke="none">
    <path d="M281 251 c-23 -26 -61 -36 -61 -16 0 5 -5 2 -11 -8 -12 -21 -10 -25
17 -30 10 -1 24 -6 31 -10 l12 -8 22 22 21 21 -5 18 c-3 11 0 21 6 23 l11 3
-9 6 c-6 3 -21 -7 -34 -21z" />
  </g>
  <g transform="translate(0.000000,48.000000) scale(0.100000,-0.100000)" fill="#e6da84" stroke="none">
    <path d="M293 433 c4 -3 10 -3 14 0 3 4 0 7 -7 7 -7 0 -10 -3 -7 -7z" />
    <path d="M243 423 c4 -3 10 -3 14 0 3 4 0 7 -7 7 -7 0 -10 -3 -7 -7z" />
    <path d="M134 406 c-3 -8 -4 -23 -2 -33 l4 -18 5 33 c6 34 2 42 -7 18z" />
    <path d="M60 370 c0 -7 3 -10 7 -7 3 4 3 10 0 14 -4 3 -7 0 -7 -7z" />
    <path d="M426 313 l-7 -18 12 12 c7 7 10 15 7 18 -3 3 -9 -2 -12 -12z" />
    <path d="M27 300 c3 -11 9 -22 13 -25 5 -3 6 4 3 15 -3 11 -9 22 -13 25 -5 3
-6 -4 -3 -15z" />
    <path d="M370 280 c0 -5 7 -7 15 -4 8 4 15 8 15 10 0 2 -7 4 -15 4 -8 0 -15
-4 -15 -10z" />
    <path d="M393 263 c4 -3 10 -3 14 0 3 4 0 7 -7 7 -7 0 -10 -3 -7 -7z" />
    <path d="M34 228 l-7 -11 11 7 c12 7 16 16 8 16 -3 0 -8 -5 -12 -12z" />
    <path d="M16 197 c3 -10 9 -15 12 -12 3 3 0 11 -7 18 l-12 12 7 -18z" />
    <path d="M470 177 c0 -6 -14 -19 -32 -26 l-32 -15 13 -4 c7 -2 16 0 20 5 3 5
14 12 24 16 9 3 17 13 17 22 0 8 -2 15 -5 15 -3 0 -5 -6 -5 -13z" />
    <path d="M0 170 c0 -7 3 -10 7 -7 3 4 3 10 0 14 -4 3 -7 0 -7 -7z" />
    <path d="M70 123 c19 -3 38 -9 41 -15 l6 -10 6 14 5 14 -47 1 -46 0 35 -4z" />
    <path d="M376 117 c3 -10 9 -15 12 -12 3 3 0 11 -7 18 l-12 12 7 -18z" />
    <path d="M250 91 c0 -5 7 -11 14 -14 l15 -6 -6 15 c-6 15 -23 19 -23 5z" />
    <path d="M121 64 l1 -19 5 13 c3 7 2 16 -1 19 -3 4 -6 -2 -5 -13z" />
    <path d="M224 38 l-7 -11 11 7 c12 7 16 16 8 16 -3 0 -8 -5 -12 -12z" />
  </g>
  <g transform="translate(0.000000,48.000000) scale(0.100000,-0.100000)" fill="#e2ca35" stroke="none">
    <path d="M305 430 c3 -5 8 -10 11 -10 3 0 2 5 -1 10 -3 6 -8 10 -11 10 -3 0
-2 -4 1 -10z" />
    <path d="M333 398 c8 -4 27 -3 43 1 l29 9 -42 -1 -43 -1 13 -8z" />
    <path d="M30 350 c-6 -11 -8 -20 -6 -20 3 0 10 9 16 20 6 11 8 20 6 20 -3 0
-10 -9 -16 -20z" />
    <path d="M441 344 l1 -19 5 13 c3 7 2 16 -1 19 -3 4 -6 -2 -5 -13z" />
    <path d="M30 300 c0 -7 3 -10 7 -7 3 4 3 10 0 14 -4 3 -7 0 -7 -7z" />
    <path d="M19 213 l-14 -18 18 14 c16 13 21 21 13 21 -2 0 -10 -8 -17 -17z" />
    <path d="M435 149 c-4 -6 -5 -12 -2 -15 2 -3 7 2 10 11 7 17 1 20 -8 4z" />
    <path d="M365 141 c-3 -5 -1 -12 4 -15 5 -3 11 1 15 9 6 16 -9 21 -19 6z" />
    <path d="M106 132 c-3 -5 1 -9 9 -9 8 0 12 4 9 9 -3 4 -7 8 -9 8 -2 0 -6 -4
-9 -8z" />
    <path d="M111 94 l1 -19 5 13 c3 7 2 16 -1 19 -3 4 -6 -2 -5 -13z" />
    <path d="M250 89 c0 -5 5 -7 10 -4 6 3 10 8 10 11 0 2 -4 4 -10 4 -5 0 -10 -5
-10 -11z" />
    <path d="M360 80 c0 -7 3 -10 7 -7 3 4 3 10 0 14 -4 3 -7 0 -7 -7z" />
    <path d="M270 70 c0 -7 3 -10 7 -7 3 4 3 10 0 14 -4 3 -7 0 -7 -7z" />
    <path d="M295 50 l-6 -10 16 0 16 0 -6 10 c-3 6 -8 10 -10 10 -2 0 -7 -4 -10
-10z" />
    <path d="M130 46 c0 -2 7 -7 16 -10 l15 -6 -6 10 c-6 10 -25 14 -25 6z" />
    <path d="M180 26 l8 -8 18 10 18 10 -26 -1 -27 -2 9 -9z" />
  </g>
  <g transform="translate(0.000000,48.000000) scale(0.100000,-0.100000)" fill="#e1cf52" stroke="none">
    <path d="M270 430 c0 -7 3 -10 7 -7 3 4 3 10 0 14 -4 3 -7 0 -7 -7z" />
    <path d="M144 418 l-7 -11 11 7 c7 4 12 9 12 12 0 8 -9 4 -16 -8z" />
    <path d="M363 403 c4 -3 10 -3 14 0 3 4 0 7 -7 7 -7 0 -10 -3 -7 -7z" />
    <path d="M103 373 c4 -3 10 -3 14 0 3 4 0 7 -7 7 -7 0 -10 -3 -7 -7z" />
    <path d="M430 371 c0 -6 4 -13 10 -16 l10 -6 -6 15 c-7 18 -14 21 -14 7z" />
    <path d="M414 298 l-7 -11 11 7 c7 4 12 9 12 12 0 8 -9 4 -16 -8z" />
    <path d="M366 281 c-3 -5 1 -12 10 -15 22 -8 25 -4 9 11 l-14 13 -5 -9z" />
    <path d="M438 244 l22 -15 -6 -11 -7 -11 12 7 12 8 -17 19 c-9 10 -22 19 -28
19 -6 0 0 -7 12 -16z" />
    <path d="M0 166 c0 -2 8 -10 18 -17 l17 -14 -14 18 c-13 16 -21 21 -21 13z" />
    <path d="M370 100 c-8 -5 -12 -11 -9 -14 2 -3 11 -1 19 4 8 5 12 11 9 14 -2 3
-11 1 -19 -4z" />
    <path d="M115 80 c3 -5 8 -10 11 -10 3 0 2 5 -1 10 -3 6 -8 10 -11 10 -3 0 -2
-4 1 -10z" />
    <path d="M213 33 c4 -3 10 -3 14 0 3 4 0 7 -7 7 -7 0 -10 -3 -7 -7z" />
  </g>
  <g transform="translate(0.000000,48.000000) scale(0.100000,-0.100000)" fill="#e2d46e" stroke="none">
    <path d="M170 463 c8 -2 22 -7 30 -10 27 -11 40 -11 34 -2 -3 5 -9 7 -14 4 -5
-3 -11 -1 -15 5 -3 5 -16 10 -28 9 l-22 -1 15 -5z" />
    <path d="M434 328 l-7 -11 11 7 c7 4 12 9 12 12 0 8 -9 4 -16 -8z" />
    <path d="M435 250 c3 -5 8 -10 11 -10 3 0 2 5 -1 10 -3 6 -8 10 -11 10 -3 0
-2 -4 1 -10z" />
    <path d="M0 170 c0 -7 3 -10 7 -7 3 4 3 10 0 14 -4 3 -7 0 -7 -7z" />
    <path d="M360 140 c0 -5 5 -10 10 -10 6 0 10 5 10 10 0 6 -4 10 -10 10 -5 0
-10 -4 -10 -10z" />
    <path d="M28 123 c7 -3 16 -2 19 1 4 3 -2 6 -13 5 l-19 -1 13 -5z" />
    <path d="M282 54 c9 -9 21 -15 27 -13 6 2 -2 10 -17 17 l-27 12 17 -16z" />
    <path d="M125 50 c3 -5 8 -10 11 -10 3 0 2 5 -1 10 -3 6 -8 10 -11 10 -3 0 -2
-4 1 -10z" />
  </g>
  <g transform="translate(0.000000,48.000000) scale(0.100000,-0.100000)" fill="#ceac28" stroke="none">
    <path d="M407 399 c7 -7 15 -10 18 -7 3 3 -2 9 -12 12 l-18 7 12 -12z" />
    <path d="M276 315 c4 -8 12 -15 20 -15 20 0 17 7 -6 20 l-20 10 6 -15z" />
    <path d="M335 269 c-10 -16 0 -21 29 -13 14 3 23 10 20 15 -7 12 -41 11 -49
-2z" />
    <path d="M340 140 c0 -5 9 -10 21 -10 l20 0 -6 10 c-3 6 -13 10 -21 10 -8 0
-14 -4 -14 -10z" />
    <path d="M270 130 c0 -7 3 -10 7 -7 3 4 3 10 0 14 -4 3 -7 0 -7 -7z" />
  </g>
  <g transform="translate(0.000000,48.000000) scale(0.100000,-0.100000)" fill="#e9e3ba" stroke="none">
    <path d="M393 403 c4 -3 10 -3 14 0 3 4 0 7 -7 7 -7 0 -10 -3 -7 -7z" />
    <path d="M363 273 c4 -3 10 -3 14 0 3 4 0 7 -7 7 -7 0 -10 -3 -7 -7z" />
    <path d="M293 43 c4 -3 10 -3 14 0 3 4 0 7 -7 7 -7 0 -10 -3 -7 -7z" />
  </g>
  <g transform="translate(0.000000,48.000000) scale(0.100000,-0.100000)" fill="#e3dba0" stroke="none">
    <path d="M353 273 c4 -3 10 -3 14 0 3 4 0 7 -7 7 -7 0 -10 -3 -7 -7z" />
    <path d="M183 23 c4 -3 10 -3 14 0 3 4 0 7 -7 7 -7 0 -10 -3 -7 -7z" />
  </g>
  <g transform="translate(0.000000,48.000000) scale(0.100000,-0.100000)" fill="#b96e0e" stroke="none">
    <path d="M276 225 c-3 -9 -10 -13 -16 -10 -5 3 -10 2 -10 -4 0 -18 17 -21 36
-6 l19 14 -11 11 -11 11 -7 -16z" />
    <path d="M203 213 c4 -3 10 -3 14 0 3 4 0 7 -7 7 -7 0 -10 -3 -7 -7z" />
  </g>
  <g transform="translate(0.000000,48.000000) scale(0.100000,-0.100000)" fill="#c0a848" stroke="none">
    <path d="M285 310 c3 -5 8 -10 11 -10 3 0 2 5 -1 10 -3 6 -8 10 -11 10 -3 0
-2 -4 1 -10z" />
    <path d="M330 270 c0 -5 4 -10 9 -10 6 0 13 5 16 10 l6 10 -15 0 c-9 0 -16 -4
-16 -10z" />
  </g>
</svg>