<?xml version="1.0" standalone="yes"?>
<svg xmlns="http://www.w3.org/2000/svg" width="1706" height="1279">
<path style="fill:#ffffff; stroke:none;" d="M0 0L0 1279L1706 1279L1706 0L0 0z"/>
<path style="fill:#f7d519; stroke:none;" d="M846 531C844.071 525.152 836.354 521.453 831.804 527.059C829.525 529.867 830.038 533.619 829.996 537C829.932 542.199 830.107 549.862 828.232 554.71C825.111 562.776 814.518 565.594 809.728 572.263C807.531 575.321 808.001 579.44 808 583C807.997 591.98 806.66 601.819 811 610C796.94 609.998 786.19 600.419 772 600L774 599C767.564 596.299 760.651 599.927 754 600L755 598C746.263 598.697 749.143 608.049 751 614C740.882 615.07 730.212 614 720 614C719.178 617.311 717.078 620.499 717.166 623.985C717.271 628.159 719.871 631.66 720 636C717.757 636 715.321 635.762 713.103 636.148C707.553 637.114 708.564 642.888 709.595 647C711.015 652.667 714.281 656.993 718.872 660.545C723.111 663.825 726.791 664.102 728 670L716 668C716.444 673.046 718.902 677.153 720 682C727.606 683.982 731.834 692.885 740 694L739 696C749.139 698.299 757.352 703.999 768 704C767.816 706.111 767.762 707.905 768 710C755.555 710.001 747.532 717.299 736 720C732.93 725.278 723.986 727.928 718.92 731.586C711.538 736.916 708.119 743.878 705 752C708.227 753.435 713.449 756.941 713.424 761.004C713.409 763.306 711.599 765.775 711 768C701.386 769.396 691.246 782.551 698.286 791.687C701.369 795.687 708.462 796.557 713 798C711.379 802.163 706.257 807.117 707.747 811.812C709.18 816.326 715.629 819.788 720.015 819.981C724.191 820.164 728.757 820.372 732.911 819.871C735.332 819.579 737.543 818.258 740 818.258C742.457 818.258 744.669 819.579 747.089 819.871C755.127 820.84 766.843 821.448 774.714 819.545C782.583 817.642 792.117 812.018 800 815C793.69 817.829 791.19 825.465 791 832L788 832L788 856C792.151 858.172 798.645 862.194 799.722 867.093C800.602 871.095 799.021 875.684 800.843 879.482C802.154 882.214 806.792 890.169 809.394 891.396C812.173 892.705 815.927 890.726 818.4 892.773C820.801 894.76 820.162 898.279 823.059 900.137C832.184 905.991 846.498 894.439 848 909C852.286 908.928 864.13 907.413 864 902C869.52 901.27 874.295 900 880 900L880 896C899.463 895.933 904.875 872.705 910.552 858C912.476 853.015 913.255 846.901 918 844C919.724 857.033 928.722 871.529 937.695 880.95C941.292 884.727 947.338 886.82 950 891C953.163 889.343 953.755 887.489 954 884L960 884L960 888C964.175 889.071 967.095 892.429 971.289 893.54C977.606 895.213 985.489 894 992 894L992 884C1000.12 884.006 1010.26 892.22 1012 880L1015 880C1013.98 871.849 1009.8 864.046 1008 856C1007.38 853.214 1005.8 849.415 1008.59 847.319C1011.66 845.016 1014.98 847.164 1018.17 847.741C1021.67 848.373 1025.46 848 1029 848C1028.96 837.463 1024.33 828.013 1019.57 818.996C1017.23 814.554 1016.26 809.483 1011 808C1010.69 805.877 1010.62 805.314 1009 804C1014.81 803.137 1021.24 805.244 1027.09 805.875C1031.67 806.369 1036.49 805.348 1041 806.474C1047.94 808.207 1055.49 812.302 1062.91 811.812C1066.22 811.594 1068.8 808.822 1072 808C1071.93 804.576 1070.26 799.363 1072.19 796.318C1073.84 793.718 1077.32 794.019 1080 794.001C1087.97 793.946 1095.25 792.503 1103 792C1104.12 787.768 1105.75 783.499 1104.43 779.089C1103.25 775.152 1100.26 772.034 1099 768C1107.75 767.317 1110.26 758.356 1104.78 751.789C1102.5 749.061 1099.35 748.346 1096 748L1098 747C1094.58 745.405 1090.78 744.251 1087 744C1088.14 738.506 1094.58 737.796 1095.46 732.889C1096.28 728.31 1089.74 724.909 1088 721C1081.59 719.314 1077.56 712.954 1071 712L1072 710L1064 708L1065 706C1057.8 704.389 1050.87 701.187 1043.96 698.759C1034.14 695.307 1024.14 693.632 1014.09 691.737C1006.52 690.309 999.966 688.022 992 688L992 686C1007.31 686 1023.92 683.58 1038 677.549C1043.03 675.395 1049.15 673.71 1051 668C1057.7 667.925 1065.76 662.385 1068.3 655.815C1069.64 652.338 1068.73 648.515 1070.21 645.001C1072.69 639.138 1077.63 635.115 1079.76 629C1080.51 626.826 1081.56 623.676 1079.97 621.603C1077.5 618.393 1071.77 620.79 1070.36 615.811C1069.53 612.856 1071.86 610.019 1071.75 607.039C1071.4 597.692 1061.67 598 1055 598C1055.81 593.837 1056.16 590.244 1060 588L1060 584L1050 584C1052.11 583.356 1053.8 583.094 1056 583C1053.13 581.797 1050.18 582.276 1047.17 581.544C1043.67 580.692 1040.51 578.828 1037 578L1037 574C1030.95 574 1025.82 575.183 1019.96 575.871C1016.21 576.312 1012.05 575.296 1008.47 576.768C1006.16 577.716 1004.73 579.794 1002.64 581.045C997.517 584.108 992.113 586.773 987 590C986.006 584.645 986 579.43 986 574C979.253 574.001 975.252 576.15 969 578C969 571.418 970.876 553.571 960.904 552.407C956.7 551.917 951.153 555.147 947 556C946.981 554.369 947.114 552.59 946.682 550.995C945.415 546.311 938.64 544.281 934.633 547.028C930.889 549.595 929.207 554.924 927.741 558.906C927.023 560.855 925.928 562.313 923.945 563.123C919.452 564.961 913.401 561.035 909 560C907.627 562.547 906.782 563.188 904 564C902.549 553.042 896.385 542.034 892 532L889 532C887.782 534.118 887.133 534.845 885 536L886 538C882.393 539.186 880.467 542.423 877 544C875.041 538.305 869.981 531.649 864 530L864 524C860.61 524 859.566 522.54 857 521L858 520C851.551 520.514 851.278 527.588 846 531z"/>
<path style="fill:#ca820a; stroke:none;" d="M910 649C910.375 645.827 910.615 643.151 910 640C912.003 638.266 911.923 636.645 912 634C905.718 635.984 904.16 645.585 910 649M889 643L885 642L885 646C887.696 647.059 890.189 648.299 893 649C892.815 644.863 893.462 641.079 894 637C890.598 638.071 889.718 639.544 889 643M896 640C896.661 641.396 896.965 641.814 898 643C893.909 645.682 895.628 649.241 900 650L900 656C897.703 655.326 897.226 655.035 896 653L890 656L890 651C885.392 648.862 883.591 643.635 879 642C879.017 646.757 880.092 649.736 882 654C878.3 652.135 877.308 650.089 877 646L874 646C874.028 649.422 874.375 652.637 875 656C872.55 654.235 870.765 652.45 869 650L867 650C864.401 654.078 861.999 652.52 858 651C858.094 653.205 858.356 654.894 859 657L856 656L857 663C850.672 665.546 854.886 671.068 856 676C852.098 675.493 848.614 674.562 845 673C844.46 675.24 844.19 677.069 843 679L843 681C844.957 684.465 842.862 687.377 842 691C845.386 691.714 847.128 693.598 850 695C849.438 696.8 849.176 698.122 849 700L836 701C837.023 707.046 839.11 711.502 832 714C833.788 720.363 840.563 715.884 845 715L845 719L849 717L849 720C850.894 719.535 852.277 718.934 854 718C854.002 721.964 852.815 723.82 849 725C851.14 728.783 856.057 729.016 857.803 732.317C858.986 734.553 857.864 737.506 858.158 739.911C858.496 742.675 860.564 744.862 860.143 747.729C859.066 755.053 853.405 760.513 853 768L859 764L860 759C861.479 759.986 861.203 760 863 760C864.583 758.207 865.922 757.22 868 756C869.945 757.802 871.442 756.708 874.005 756.362C878.298 755.782 882.678 755.558 887 755C887.527 759.463 887.189 763.538 887 768L892 768C892.262 773.106 898.088 773.376 898 768L903 768L903 762C906.817 762.941 911.507 763.023 914.185 766.279C920.062 773.423 919.621 783.522 921.549 792C922.439 795.914 922.566 800.653 926.471 803.012C929.12 804.611 933.036 804 936 804C933.387 802.902 930.836 803.007 928 803L932 802C930.934 795.604 931.42 789.321 933 783C933.927 779.292 932.477 777.154 935 774L936 775C937.242 770.282 939.468 767.794 944 766L944 762C946.635 763.23 949.196 764.234 952 765C951.02 763.217 951.092 763.406 949 763C955.676 758.126 947.17 748.691 958 747C959.868 742.93 962.682 741.68 967 741L968 736C965.861 731.396 968.165 725.526 973 724C972.903 720.66 972.305 718.077 971 715L976 715C975.535 713.018 975.297 712.595 974 711C976.817 710.875 979.252 711.402 982 712C981.856 708.691 981.64 705.12 979.865 702.209C978.656 700.227 976.499 698.975 975.6 696.791C974.305 693.65 975 689.336 975 686L962 684C961.985 679.774 962.284 676.722 958 675C958.683 673.42 958.805 673.223 960 672C956.748 670.635 953.423 671.494 950.04 670.697C945.484 669.623 942.399 663.66 938.184 668.988C937.525 669.822 937.33 671.06 937 672C941.008 674.569 940.908 679.551 941 684C939.42 683.316 939.223 683.195 938 682C933.84 682.217 931.81 680.979 929 678C924.274 683.033 920.496 682.82 914 682C912.819 685.755 910.61 686.724 907 688L908 683C903.782 683.938 898.429 684.8 894.259 683.001C891.991 682.022 890.323 680.034 888 679C889.029 676.388 889.93 674.881 892 673L891 668C894.942 667.645 898.277 666.238 902 665L902 669C904.364 668.518 904.518 668.364 905 666C907.249 667.154 907.846 667.751 909 670L906 670L906 673L910 673C912.63 668.648 915.311 670.717 916 675C918.478 674.367 919.741 673.931 922 675C926.321 673.873 929.651 674.582 934 675L934 670C930.235 671.179 926.727 670.495 923 672C921.551 669.15 919.888 661.755 916.721 660.732C912.703 659.434 907.559 664.33 904.019 660.107C902.456 658.243 903.253 655.223 903.147 652.999C902.906 647.954 902.003 643.082 902 638C899.828 638.464 898.042 639.105 896 640M914 649L920 649L920 641C916.012 642.288 915.075 645.125 914 649M924 647C922.38 650.717 921.668 653.986 918 656C919.248 656.685 919.548 656.749 921 657L920 663L924 662L924 652L929 652C928.499 654.686 928.117 657.27 928 660L934 661C932.721 654.874 930.186 649.199 924 647z"/>
<path style="fill:#f7d519; stroke:none;" d="M871 658L873 665C869.037 663.741 865.081 662.792 861 662L862 666C867.903 665.092 871.416 668.773 877 670C877.851 666.683 880.099 664.28 881 661L876 662C875.161 659.115 873.885 658.711 871 658z"/>
<path style="fill:#ca820a; stroke:none;" d="M936 661C936.899 663.124 936.876 663.101 939 664C937.999 662.076 937.922 661.902 936 661z"/>
<path style="fill:#f7d519; stroke:none;" d="M885 662C886.277 665.844 888.723 665.844 890 662L885 662M880 666L880 670L883 670L883 666L880 666M861 668C859.661 671.663 860.804 675.035 858 678C860.362 678.623 862.557 678.82 865 679L863 668L861 668M944 671L943 675L946 675C945.489 673.048 945.267 672.543 944 671z"/>
<path style="fill:#ca820a; stroke:none;" d="M901 675L902 682L907 680C905.929 676.598 904.456 675.718 901 675z"/>
<path style="fill:#f7d519; stroke:none;" d="M882 676L882 680L885 680L885 676L882 676z"/>
<path style="fill:#ca820a; stroke:none;" d="M909 677C909.684 679.209 910.08 679.703 912 681L912 677L909 677z"/>
<path style="fill:#f7d519; stroke:none;" d="M863 687C864.731 685.994 866.053 685.453 868 685C868.44 688.206 868.784 690.059 872 691L871 687L880 686C879.356 688.106 879.094 689.795 879 692L892 694C891.124 688.708 888.074 689.727 884.17 687.272C880.178 684.762 879.095 682.169 874 683C872.389 673.724 863.946 681.168 863 687M886 682L886 686C888.035 684.774 888.326 684.297 889 682L886 682M916 689C921.91 689.253 925.424 689.176 931 687C927.937 681.782 918.948 684.669 916 689M847 684L847 687L850 687L850 684L847 684M931 691L936 693L936 695L930 697C930.355 693.533 929.414 692.591 926 692C926.334 694.512 927.146 696.62 928 699L922 699C923.394 703.158 926.116 702.447 930 702L930 708C927.623 707.428 925.442 707.109 923 707L923 710L907 711L909 717C904.62 715.44 901.556 714.362 899 719L905 718L901 725C903.567 724.051 904.532 723.306 906 721C908.168 721.829 910.03 722.773 912 724C914.052 722.035 915.194 721.426 918 721L915 717L919 717L918 713L921 715C922.435 713.551 923.115 712.778 924 711L931 714C931.265 710.522 931.673 707.449 931 704C934.436 703.637 937.564 703.637 941 704C940.827 700.83 940.644 698.864 938 697C939.174 694.342 939.404 692.877 939 690C944.214 692.334 949.391 694.813 950 687C943.031 688.767 934.515 682.61 931 691M862 691L862 693L866 693L866 691L862 691M872 695C871.021 699.395 868.447 704.048 874 706L874 712C879.672 710.764 883.198 707.889 884 702C882.106 702.465 880.723 703.066 879 704C879.854 702.351 881.685 700.595 882.129 698.798C883.322 693.963 874.698 695.288 872 695M886 699L886 703L889 703L889 699L886 699M959 702L958 708L963 708C962.732 704.602 962.205 703.285 959 702M847 712L850 712L852 708C847.835 703.68 846.042 707.398 847 712M863 709C865.513 707.963 866.617 707.317 868 705C864.934 705.497 863.968 706.036 863 709M948 731C948.479 729.502 948.4 729.65 948 728C950.035 726.774 950.326 726.297 951 724C949.392 722.55 948.936 721.949 948 720C950.584 720.322 952.602 720.973 955 722C953.751 718.894 948.74 715.748 946.654 720.318C945.144 723.623 946.591 727.995 948 731M883 723C883 726.51 882.013 730.146 886 731L885 723L883 723M864 731C867.24 730.075 868.495 729.012 870 726C866.893 727.078 865.517 728.082 864 731M870 734L874 734L874 730C871.373 730.839 870.839 731.373 870 734z"/>
<path style="fill:#ca820a; stroke:none;" d="M849 736C850.314 735.232 850.232 735.314 851 734L853 734C854.314 735.618 854.877 735.693 857 736C854.125 732.585 850.951 731.156 849 736z"/>
<path style="fill:#f7d519; stroke:none;" d="M931 733L931 736L933 736L933 733L931 733M900 744C900.3 747.864 901.089 749.348 905 750L905 745L900 744M893 749C895.739 748.789 896.422 748.697 897 746C895.052 746.936 894.45 747.392 893 749z"/>
<path style="fill:#ca820a; stroke:none;" d="M839 782C845.009 781.069 850.043 775.634 852 770C846.46 771.568 841.801 777.079 839 782M972 783C975.496 791.145 983.755 796.843 992 799L994 794C986.061 791.658 980.854 780.234 972 783z"/>
<path style="fill:#ffffff; stroke:none;" d="M1014.67 802.333C1014.22 802.778 1015.28 802.722 1015.33 802.667C1015.78 802.222 1014.72 802.278 1014.67 802.333z"/>
</svg>
