<?xml version="1.0" standalone="yes"?>
<svg xmlns="http://www.w3.org/2000/svg" width="504" height="504">
<path style="fill:#fefefe; stroke:none;" d="M0 0L0 504L504 504L504 0L0 0z"/>
<path style="fill:#4a4b4b; stroke:none;" d="M126 127C121.371 128.466 119.599 132.752 116.965 136.576C111.23 144.902 99.5923 156.31 101 167C94.5499 167.947 93.7233 173.906 90.9722 179C85.4502 189.224 70.2078 216.533 92 217C94.6124 209.15 96.3963 200.613 99.5934 193C108.425 171.971 121.247 152.673 134.104 134C141.965 122.583 149.628 110.895 158.58 100.285C163.189 94.8234 168.62 90.1668 173.349 84.8411C194.485 61.0385 220.752 35.5124 252 26C252.319 31.5064 248.994 34.8459 246.134 39.25C239.868 48.8999 234.252 61.8143 223 66C224.138 73.0435 220.479 77.9348 217.358 84C211.74 94.9182 205.697 105.649 199.794 116.424C190.842 132.765 182.95 150.351 176.785 168C171.866 182.086 168.137 197.25 162.122 210.91C158.497 219.143 147.773 223.369 145 232C139.914 232.809 136.714 236.964 132.985 240.289C124.914 247.488 116.918 254.608 108.424 261.32C104.04 264.785 99.6265 266.226 98 272C89.3486 272.58 82.7241 279.247 76 284.091C61.6634 294.419 48.0482 305.197 34.9853 317.174C29.4379 322.26 20.2925 329.24 27.6343 336.485C28.551 337.39 29.8227 338.067 31.0895 338.298C34.6686 338.95 38.4593 336.365 41.2855 334.486C49.2752 329.175 54.7093 320.732 62.0856 314.71C69.0973 308.986 74.7265 302.055 82.1196 296.635C92.7955 288.808 104.688 282.765 115.91 275.92C125.632 269.991 135.745 263.864 147 261C147 267.568 144.348 277.821 146.894 283.829C148.765 288.246 155.528 292.306 158.682 286.852C164.037 277.591 159.59 262.68 166.419 254.13C172.296 246.771 186.349 244.854 195 242.63C200.83 241.131 206.944 239.198 213 239.044C215.465 238.981 218.451 239.031 219.972 241.318C223.783 247.048 217.79 260.163 215.975 266C211.477 280.458 203.437 296.289 195.145 309C189.97 316.932 182.581 324.738 180 334C199.856 333.943 204.502 309.361 218 299C218 342.535 212.742 385.768 209.326 429C208.825 435.331 211.273 441.67 210.816 448C210.448 453.086 208.714 457.955 208.174 463C207.259 471.545 207 480.401 207 489C212.78 487.071 212.673 480.207 213.997 475C217.457 461.394 221 447.034 221 433C221 423.507 222.933 414.424 223.83 405C225.441 388.073 225.48 370.906 227.171 354C228.237 343.338 230.176 332.727 230.91 322C231.727 310.073 231.868 297.854 233.424 286C233.981 281.757 233.428 276.788 235.894 273.09C240.011 266.916 247.802 262.584 252.829 257C262.09 246.715 269.279 234.74 277.145 223.425C279.312 220.308 287.834 210.636 291.821 216.336C295.549 221.667 290.958 235.18 289.65 241C285.175 260.915 278.898 280.933 275.436 301C274.15 308.456 271.13 317.345 276.595 323.656C282.284 330.225 287.028 324.794 289.794 318.999C294.485 309.173 296.927 296.772 298 286C291.367 282.33 296.385 271.961 297.873 266C300.607 255.053 303.759 244.153 305.427 233C306.07 228.707 307.273 224.363 306.696 220C304.978 207.014 292.087 199.88 280 203.834C274.059 205.777 269.312 208.61 264.004 211.845C255.185 217.219 248.165 226.72 239 231C240.103 217.02 241.066 202.924 242.715 189C243.389 183.305 243.125 177.471 245.188 172.004C247.229 166.593 250.884 162.14 254.045 157.389C262.634 144.474 272.319 133.273 282.884 122.015C287.586 117.005 293.3 113.671 299 110.002C304.967 106.161 309.645 102.051 317 102.001C320.81 101.975 327.52 100.789 329.396 105.148C331.713 110.532 327.466 118.88 325.82 124C323.063 132.578 320.895 140.961 316.624 149C311.81 158.062 306.379 164.33 305 175C310.721 170.573 316.542 161.983 320.286 155.7C322.527 151.941 323.009 148.271 327 146C329.651 136.166 337.603 128.233 339.779 118C340.754 113.417 341.3 108.721 339.906 104.17C335.88 91.0301 319.069 89.423 308 92.3503C288.663 97.4642 273.307 114.101 260.039 128C255.613 132.637 252.185 138.183 247 142C247.133 125.882 249.812 109.128 247.711 93C246.817 86.143 240.124 76.6311 242.11 70C243.216 66.3059 246.332 63.1124 248.495 60C253.536 52.7471 258.388 45.6706 263.005 38.1698C266.628 32.2847 270.518 25.5206 265.276 19.1335C261.955 15.0858 256.89 14.7319 252 15.0903C240.534 15.9308 231.513 23.6056 222 29.0409C191.225 46.6239 166.825 71.419 145.29 99.0895C139.067 107.086 126.581 116.416 126 127z"/>
<path style="fill:#fefefe; stroke:none;" d="M229 89C224.024 98.9546 217.88 107.605 213.656 118C212.609 120.576 209.114 125.503 211.072 128.258C212.636 130.459 216.669 129.995 219 130.478C224.362 131.588 227.954 135.614 233 137C233.247 125.014 234.736 113.057 233.91 101C233.597 96.4193 233.86 90.613 229 89M189 178C197.942 175.068 201.408 162.741 205.674 155.285C207.211 152.598 210.451 147.702 207.383 144.877C203.513 141.315 200.606 147.188 199.286 149.997C195.456 158.152 189.642 169.07 189 178M240 147L239 148C240.127 150.841 240.987 151.492 244 152C243.188 149.218 242.547 148.373 240 147M229 148C215.657 168.832 197.807 186.395 181.769 205.155C176.769 211.004 174.102 218.498 172.552 226.001C172.087 228.251 170.769 231.399 171.694 233.667C173.136 237.205 179.518 234.766 182 233.914C192.251 230.399 202.185 228.875 213 229.004C216.097 229.041 222.725 231.175 224.972 228.393C226.467 226.543 226.019 223.221 226.285 221C226.844 216.351 226.72 211.616 227.439 207C227.988 203.477 229.454 199.585 228.668 196C227.779 191.945 224.23 189.364 224.102 185C223.933 179.228 228.271 175.238 229.787 170C231.754 163.206 230.713 155.93 232 149L231 148L229 148z"/>
<path style="fill:#4a4b4b; stroke:none;" d="M470 158C473.202 157.416 475.184 156.742 477 154C473.431 154.197 471.243 154.462 470 158M457 167L457 172C452.185 173.368 450.371 176.083 450 181L445 181L445 185C435.437 187.74 431.608 199.949 424.981 206.576C410.546 221.014 399.386 237.967 386.444 253.715C379.935 261.635 369.999 268.124 365 277C358.446 272.007 360.541 265.33 359.576 258C357.93 245.504 356.675 230.754 349.361 220.054C345.96 215.078 336.084 207.412 329.878 212.318C327.955 213.838 327.066 216.85 326.084 219.004C324.108 223.339 322.039 227.653 320.104 232C317.58 237.67 315.18 244.802 315 251C324.691 249.502 332.179 233.749 337 226C346.331 238.24 344.596 257.522 346.73 272C348.028 280.809 351.677 291.038 360.443 295.101C365.237 297.323 371.166 295.303 374.741 291.801C381.527 285.152 386.384 276.619 391.961 268.999C410.203 244.075 428.04 218.876 446.467 194.169C452.578 185.975 459.45 178.475 465.155 169.95C467.392 166.607 470.008 163.955 471 160C468.458 160.002 464.885 159.44 462.698 161.027C460.316 162.756 459.691 165.448 457 167M295 191C293.964 192.186 293.661 192.604 293 194C295.251 193.527 296.118 193.14 295 191z"/>
<path style="fill:#fefefe; stroke:none;" d="M139 247C142.83 247.875 149.507 245.902 152.061 242.567C153.212 241.065 154.615 236.446 151.667 235.917C149.592 235.545 147.512 237.5 146.004 238.62C144.695 239.593 143.399 240.664 142.228 241.799C140.553 243.424 139.789 244.863 139 247z"/>
</svg>
